<?xml version="1.0" encoding="UTF-8" standalone="no"?>
<svg width="102px" height="101px" viewBox="0 0 102 101" version="1.1" xmlns="http://www.w3.org/2000/svg" xmlns:xlink="http://www.w3.org/1999/xlink" xmlns:sketch="http://www.bohemiancoding.com/sketch/ns">
    <!-- Generator: Sketch 3.3.3 (12081) - http://www.bohemiancoding.com/sketch -->
    <title>fan</title>
    <desc>Created with Sketch.</desc>
    <defs></defs>
    <g id="Page-1" stroke="none" stroke-width="1" fill="none" fill-rule="evenodd" sketch:type="MSPage">
        <path d="M63.841,47.809 C67.872,46.362 74.598,45.443 81.057,49.031 C92.036,55.128 102.356,45.851 100.854,35.579 C99.522,26.476 93.9,17.208 86.76,13.484 C76.082,7.919 67.998,11.016 61.741,17.807 C57.644,22.257 53.359,30.105 53.027,37.569 C52.87,41.083 48.79,40.898 47.809,38.16 C46.361,34.129 45.442,27.402 49.028,20.945 C55.128,9.964 45.85,-0.357 35.579,1.146 C26.475,2.48 17.208,8.099 13.484,15.242 C7.918,25.919 11.015,34.003 17.806,40.258 C22.255,44.356 30.107,48.643 37.568,48.975 C41.083,49.131 40.898,53.211 38.16,54.191 C34.127,55.64 27.4,56.56 20.944,52.972 C9.963,46.872 -0.358,56.151 1.146,66.423 C2.478,75.527 8.099,84.794 15.242,88.517 C25.919,94.084 34.003,90.986 40.258,84.195 C44.356,79.747 48.642,71.896 48.973,64.434 C49.13,60.918 53.209,61.105 54.191,63.838 C55.638,67.872 56.558,74.598 52.971,81.057 C46.871,92.035 56.149,102.356 66.421,100.852 C75.525,99.52 84.792,93.903 88.515,86.76 C94.084,76.081 90.985,68 84.194,61.741 C79.746,57.646 71.893,53.358 64.433,53.028 C60.918,52.871 61.104,48.792 63.841,47.809 L63.841,47.809 Z M51,56.074 C48.199,56.074 45.928,53.803 45.928,51.002 C45.928,48.201 48.199,45.93 51,45.93 C53.802,45.93 56.072,48.201 56.072,51.002 C56.072,53.803 53.802,56.074 51,56.074 L51,56.074 Z" id="Shape" fill="#84B001" sketch:type="MSShapeGroup"></path>
    </g>
</svg>