<?xml version="1.0" encoding="UTF-8" standalone="no"?>
<svg width="53px" height="98px" viewBox="0 0 53 98" version="1.1" xmlns="http://www.w3.org/2000/svg" xmlns:xlink="http://www.w3.org/1999/xlink" xmlns:sketch="http://www.bohemiancoding.com/sketch/ns">
    <!-- Generator: Sketch 3.3.3 (12081) - http://www.bohemiancoding.com/sketch -->
    <title>Slice 1</title>
    <desc>Created with Sketch.</desc>
    <defs></defs>
    <g id="Page-1" stroke="none" stroke-width="1" fill="none" fill-rule="evenodd" sketch:type="MSPage">
        <g id="lamp_on" sketch:type="MSLayerGroup">
            <path d="M4.571,14.29 C3.075,14.29 1.681,13.343 1.183,11.847 C0.559,9.976 1.57,7.953 3.442,7.329 L24.873,0.185 C26.745,-0.439 28.768,0.573 29.392,2.444 C30.016,4.315 29.004,6.338 27.132,6.962 L5.7,14.105 C5.326,14.23 4.945,14.29 4.571,14.29 L4.571,14.29 Z" id="Shape" fill="#989898" sketch:type="MSShapeGroup"></path>
            <g id="Group" transform="translate(0.000000, 7.000000)" sketch:type="MSShapeGroup">
                <path d="M4.571,35.864 C4.945,35.864 5.326,35.804 5.7,35.68 L48.563,21.392 C50.434,20.768 51.446,18.746 50.822,16.874 C50.198,15.002 48.176,13.991 46.304,14.615 L3.441,28.903 C1.569,29.527 0.558,31.549 1.182,33.421 C1.681,34.918 3.075,35.864 4.571,35.864 L4.571,35.864 Z" id="Shape" fill="#989898"></path>
                <path d="M4.571,21.577 C4.945,21.577 5.326,21.517 5.7,21.392 L48.563,7.105 C50.434,6.481 51.446,4.459 50.822,2.587 C50.198,0.716 48.176,-0.296 46.304,0.328 L3.441,14.616 C1.569,15.24 0.558,17.262 1.182,19.134 C1.681,20.63 3.075,21.577 4.571,21.577 L4.571,21.577 Z" id="Shape" fill="#989898"></path>
                <path d="M29.666,59.08 L22.334,59.08 C21.833,54.059 19.25,49.642 15.455,46.716 L48.563,35.68 C50.434,35.056 51.446,33.033 50.822,31.162 C50.198,29.29 48.176,28.279 46.304,28.903 L3.441,43.19 C1.779,43.745 0.764,45.421 1.045,47.151 C1.326,48.88 2.819,50.15 4.571,50.15 C9.87,50.15 14.271,54.02 15.125,59.08 L11.714,59.08 C10.728,59.08 9.928,59.88 9.928,60.866 C9.928,61.852 10.728,62.652 11.714,62.652 L25.782,62.652 L11.282,66.277 C10.325,66.516 9.743,67.486 9.983,68.443 C10.186,69.255 10.914,69.797 11.714,69.797 C11.858,69.797 12.003,69.778 12.149,69.742 L40.724,62.598 C41.598,62.379 42.173,61.543 42.063,60.648 C41.953,59.753 41.193,59.08 40.291,59.08 L36.881,59.08 C37.735,54.02 42.136,50.15 47.435,50.15 C49.408,50.15 51.007,48.551 51.007,46.579 C51.007,44.607 49.406,43.007 47.434,43.007 C38.19,43.007 30.565,50.069 29.666,59.08 Z" id="Shape" fill="#000000"></path>
                <path d="M11.714,76.939 C11.858,76.939 12.003,76.922 12.149,76.886 L40.724,69.741 C41.681,69.503 42.262,68.532 42.023,67.576 C41.784,66.619 40.814,66.037 39.858,66.276 L11.283,73.42 C10.326,73.66 9.744,74.629 9.984,75.586 C10.186,76.398 10.914,76.939 11.714,76.939 L11.714,76.939 Z" id="Shape" fill="#000000"></path>
                <path d="M40.291,80.512 L26.222,80.512 L40.723,76.887 C41.68,76.647 42.261,75.678 42.022,74.721 C41.783,73.764 40.813,73.183 39.857,73.421 L11.282,80.565 C10.407,80.784 9.832,81.621 9.943,82.517 C10.053,83.411 10.814,84.083 11.715,84.083 L12.238,84.083 L18.227,90.072 C18.394,90.239 18.622,90.334 18.859,90.334 L33.147,90.334 C33.384,90.334 33.611,90.239 33.778,90.072 L39.768,84.083 L40.29,84.083 C41.276,84.083 42.076,83.284 42.076,82.298 C42.077,81.311 41.277,80.512 40.291,80.512 L40.291,80.512 Z" id="Shape" fill="#000000"></path>
                <path d="M3.82170545,50.6994931 C4.21779815,50.6994931 4.62130436,50.6359488 5.01739707,50.504624 L50.4123748,35.3726117 C52.3938974,34.7117512 53.4656777,32.5703088 52.8048171,30.5877271 C52.1439566,28.6051454 50.0025142,27.5344242 48.0199325,28.1952848 L2.62495476,43.3272971 C0.642373081,43.9881576 -0.428348113,46.1296 0.232512446,48.1121817 C0.760989078,49.6976116 2.23733462,50.6994931 3.82170545,50.6994931 L3.82170545,50.6994931 Z" id="Shape-Copy" fill="#989898"></path>
            </g>
        </g>
    </g>
</svg>